<svg id="a7309868-fdf3-4f95-a85a-4441af415050" data-name="Layer 1" xmlns="http://www.w3.org/2000/svg" xmlns:xlink="http://www.w3.org/1999/xlink" viewBox="0 0 26.66567 26.66486">
  <defs>
    <linearGradient id="f3b695e4-3de1-44b9-8491-9a35224e367f" x1="11.75194" y1="20.25104" x2="20.25529" y2="11.74769" gradientUnits="userSpaceOnUse">
      <stop offset="0" stop-color="#292530"/>
      <stop offset="0.23932" stop-color="#e14128"/>
      <stop offset="0.24918" stop-color="#e24729"/>
      <stop offset="0.34502" stop-color="#eb8037"/>
      <stop offset="0.42722" stop-color="#f2a941"/>
      <stop offset="0.49176" stop-color="#f6c347"/>
      <stop offset="0.53063" stop-color="#f8cc49"/>
      <stop offset="0.82061" stop-color="#f9ec83"/>
      <stop offset="0.97395" stop-color="#f5f4c8"/>
    </linearGradient>
  </defs>
  <path d="M15.9988,29.331a4.00594,4.00594,0,0,1-2.832-1.1667l-.9733-.9733a2.0059,2.0059,0,0,0-1.4187-.5853H9.40546A4.01973,4.01973,0,0,1,5.39079,22.591V21.2203a2.01168,2.01168,0,0,0-.58667-1.42l-.95733-.956a4.01969,4.01969,0,0,1-.01467-5.676l.97334-.9746a2.00605,2.00605,0,0,0,.58533-1.4187V9.407A4.02,4.02,0,0,1,9.40546,5.391H10.7761a1.99308,1.99308,0,0,0,1.4187-.588l.9587-.956a4.01848,4.01848,0,0,1,5.676-.01467l.9733.97333a1.9963,1.9963,0,0,0,1.4173.58534h1.3707a4.02,4.02,0,0,1,4.0147,4.016V10.7763a2.01148,2.01148,0,0,0,.5866,1.42l.9574.9574a4.01257,4.01257,0,0,1,.0266,5.6626c-.0133.0134-.0253.028-.0386.04l-.9467.9467a2.00572,2.00572,0,0,0-.5853,1.4187V22.591a4.01978,4.01978,0,0,1-4.0147,4.0147H21.2201a2.006,2.006,0,0,0-1.4186.5866l-.9587.9574a3.99845,3.99845,0,0,1-2.844,1.1813" transform="translate(-2.66644 -2.66614)" fill="#393939" opacity="0.4" style="isolation: isolate"/>
  <path d="M13.3904,13.4012a1.14124,1.14124,0,0,1-.8213.3387,1.20392,1.20392,0,0,1-.82-.34,1.17377,1.17377,0,0,1-.3467-.8267,1.22031,1.22031,0,0,1,.3387-.82,1.056,1.056,0,0,1,.4013-.2586,1.14188,1.14188,0,0,1,1.2547.2573,1.22336,1.22336,0,0,1,.2573.3667,1.13613,1.13613,0,0,1-.264,1.2826Zm6.8636-1.6548a1.17013,1.17013,0,0,0-1.6493,0l-6.8534,6.8534a1.1667,1.1667,0,0,0,.8254,1.992,1.15675,1.15675,0,0,0,.824-.3414l6.8533-6.8533A1.16927,1.16927,0,0,0,20.254,11.7464Zm-.3796,6.6055a1.17981,1.17981,0,0,0-1.2853.2587,1.564,1.564,0,0,0-.2387.3613,1.30827,1.30827,0,0,0,0,.908,1.21729,1.21729,0,0,0,.252.376,1.19408,1.19408,0,0,0,.8333.3373,1.21175,1.21175,0,0,0,.8254-.3426,1.19893,1.19893,0,0,0-.0014-1.6494A1.063,1.063,0,0,0,19.8744,18.3519Z" transform="translate(-2.66644 -2.66614)" fill-rule="evenodd" fill="url(#f3b695e4-3de1-44b9-8491-9a35224e367f)"/>
</svg>
