<svg id="a434139d-ea8d-4b88-a499-4b5eafe51281" data-name="Layer 1" xmlns="http://www.w3.org/2000/svg" xmlns:xlink="http://www.w3.org/1999/xlink" viewBox="0 0 27.20001 31.99994">
  <defs>
    <linearGradient id="b831e2ea-1834-44ca-b841-8ea1821b001a" x1="2.94415" y1="25.04905" x2="25.12346" y2="2.86974" gradientUnits="userSpaceOnUse">
      <stop offset="0" stop-color="#292530"/>
      <stop offset="0.23932" stop-color="#e14128"/>
      <stop offset="0.24918" stop-color="#e24729"/>
      <stop offset="0.34502" stop-color="#eb8037"/>
      <stop offset="0.42722" stop-color="#f2a941"/>
      <stop offset="0.49176" stop-color="#f6c347"/>
      <stop offset="0.53063" stop-color="#f8cc49"/>
      <stop offset="0.82061" stop-color="#f9ec83"/>
      <stop offset="0.97395" stop-color="#f5f4c8"/>
    </linearGradient>
  </defs>
  <path d="M13.5649,31.8619a1.22118,1.22118,0,0,0,.5735.138,1.25075,1.25075,0,0,0,.5734-.1443l5.7086-3.0517a13.50689,13.50689,0,0,0,3.8755-2.9512,13.19233,13.19233,0,0,0,3.3038-8.7925l-.0677-10.625a2.89444,2.89444,0,0,0-1.999-2.71274L14.9131.1593a3.02168,3.02168,0,0,0-1.9683.011L2.36516,3.8605A2.89955,2.89955,0,0,0,.4,6.59834L.46766,17.2155A13.19676,13.19676,0,0,0,3.889,25.9735a13.543,13.543,0,0,0,3.9142,2.9073ZM12.0537,19.3743a1.23228,1.23228,0,0,0,1.709-.011l6.2386-6.1503a1.15524,1.15524,0,0,0-.0097-1.6632,1.23131,1.23131,0,0,0-1.709.0095l-5.3897,5.3125-2.2068-2.1213a1.23142,1.23142,0,0,0-1.709.011,1.15376,1.15376,0,0,0,.01128,1.6631Z" transform="translate(-0.39996 0)" fill-rule="evenodd" fill="url(#b831e2ea-1834-44ca-b841-8ea1821b001a)"/>
</svg>
