<svg id="e151a64b-cc40-4a20-ad66-6e5594cc3808" data-name="Layer 1" xmlns="http://www.w3.org/2000/svg" xmlns:xlink="http://www.w3.org/1999/xlink" viewBox="0 0 32.00419 30.402">
  <defs>
    <linearGradient id="fa26feb7-a01d-45b2-844c-092f21bf90e0" x1="4.78768" y1="29.53108" x2="27.12627" y2="7.19249" gradientUnits="userSpaceOnUse">
      <stop offset="0" stop-color="#292530"/>
      <stop offset="0.23932" stop-color="#e14128"/>
      <stop offset="0.24918" stop-color="#e24729"/>
      <stop offset="0.34502" stop-color="#eb8037"/>
      <stop offset="0.42722" stop-color="#f2a941"/>
      <stop offset="0.49176" stop-color="#f6c347"/>
      <stop offset="0.53063" stop-color="#f8cc49"/>
      <stop offset="0.82061" stop-color="#f9ec83"/>
      <stop offset="0.97395" stop-color="#f5f4c8"/>
    </linearGradient>
  </defs>
  <path d="M25.4696,19.7122a1.761,1.761,0,0,0-.5104,1.552l1.4224,7.872a1.728,1.728,0,0,1-.72,1.728,1.76145,1.76145,0,0,1-1.872.128l-7.0864-3.696a1.80929,1.80929,0,0,0-.8-.2096h-.4336a1.29883,1.29883,0,0,0-.432.144l-7.088,3.7136a1.86949,1.86949,0,0,1-1.136.176,1.77842,1.77842,0,0,1-1.424-2.0336l1.424-7.872a1.7904,1.7904,0,0,0-.5104-1.5664l-5.7776-5.6a1.72725,1.72725,0,0,1-.4304-1.808,1.79655,1.79655,0,0,1,1.4224-1.2l7.952-1.15357a1.77923,1.77923,0,0,0,1.408-.9744l3.504-7.184a1.66521,1.66521,0,0,1,.32-.432l.144-.112a1.07393,1.07393,0,0,1,.2576-.208l.1744-.064.272-.112h.6736a1.7897,1.7897,0,0,1,1.408.96l3.5504,7.152a1.77819,1.77819,0,0,0,1.328.9744l7.952,1.15357a1.81374,1.81374,0,0,1,1.456,1.2,1.73806,1.73806,0,0,1-.464,1.808Z" transform="translate(0.00061 -0.80023)" fill="url(#fa26feb7-a01d-45b2-844c-092f21bf90e0)"/>
</svg>
